Coordinates
version=1
nRows=6
nColumns=38
inDegrees=yes

Units are S.I. units (second, meters, Newtons, ...)
Angles are in degrees.

endheader
time	pelvis_tilt	pelvis_list	pelvis_rotation	pelvis_tx	pelvis_ty	pelvis_tz	hip_flexion_r	hip_adduction_r	hip_rotation_r	knee_angle_r	ankle_angle_r	subtalar_angle_r	mtp_angle_r	hip_flexion_l	hip_adduction_l	hip_rotation_l	knee_angle_l	ankle_angle_l	subtalar_angle_l	mtp_angle_l	lumbar_extension	lumbar_bending	lumbar_rotation	arm_flex_r	arm_add_r	arm_rot_r	elbow_flex_r	pro_sup_r	wrist_flex_r	wrist_dev_r	arm_flex_l	arm_add_l	arm_rot_l	elbow_flex_l	pro_sup_l	wrist_flex_l	wrist_dev_l
      0.80000000	      0.27636975	      1.96520791	      6.26038539	     -0.69602890	      0.90406550	      0.21615875	     27.30297228	     -2.23377426	    -10.60129179	    -13.92006717	      0.98880654	      5.03032399	      8.85318738	    -12.21952849	      5.35625387	      6.83000737	    -11.29172659	     13.32948961	      5.35334442	      4.38193840	     -7.42461370	     -1.90958491	     -9.16934791	     -5.34703772	    -13.69034183	     13.50457608	      7.69753493	     86.51662706	      0.00000000	      0.00000000	     11.93247979	    -20.46908917	     19.59964283	     37.02436650	     86.51662706	      0.00000000	      0.00000000
      0.81000000	      0.49243275	      1.87741176	      6.38458769	     -0.68247077	      0.90281286	      0.21649011	     27.17154500	     -1.98547045	    -11.02971333	    -12.19166091	      1.12032079	      6.06462155	      9.48113373	    -13.23641910	      5.04804219	      7.04029767	    -11.53251335	     13.25930802	      5.52952209	      4.70764368	     -7.69189053	     -1.76772828	     -9.45323871	     -5.31079940	    -13.56770293	     14.10775448	      7.08863684	     86.51662706	      0.00000000	      0.00000000	     12.06405065	    -20.62310169	     19.21226906	     38.15469878	     86.51662706	      0.00000000	      0.00000000
      0.82000000	      0.62681090	      1.84304903	      6.50614745	     -0.66881805	      0.90148767	      0.21682388	     27.18868865	     -1.81449522	    -11.37541593	    -11.12190817	      1.34719966	      6.64259748	      9.85642814	    -14.07867812	      4.81548533	      7.22208797	    -11.94432494	     13.13137697	      5.73892957	      5.06101171	     -7.85133272	     -1.68849969	     -9.71971529	     -5.33682290	    -13.44535804	     14.47135007	      6.70550164	     86.51662706	      0.00000000	      0.00000000	     12.18625715	    -20.72460609	     18.86300362	     38.93104730	     86.51662706	      0.00000000	      0.00000000
      0.83000000	      0.70964835	      1.84112783	      6.63162097	     -0.65500832	      0.90013649	      0.21712451	     27.29316085	     -1.69863428	    -11.62885975	    -10.67467286	      1.61574982	      6.78228525	     10.02994588	    -14.78290172	      4.62731482	      7.36422467	    -12.51850074	     12.93748232	      6.00447706	      5.50953101	     -7.92096341	     -1.64541235	     -9.97970730	     -5.41359503	    -13.33212115	     14.64429276	      6.50415765	     86.51662706	      0.00000000	      0.00000000	     12.26822387	    -20.77938171	     18.53511036	     39.44326291	     86.51662706	      0.00000000	      0.00000000
      0.84000000	      0.77089476	      1.84579547	      6.76446369	     -0.64093941	      0.89881259	      0.21736569	     27.41549843	     -1.60616552	    -11.78106071	    -10.79121434	      1.84540377	      6.50504262	     10.05952257	    -15.38571498	      4.44807367	      7.44736447	    -13.24278362	     12.66302125	      6.35431536	      6.13615176	     -7.91696419	     -1.60763291	    -10.24080042	     -5.52855208	    -13.23831083	     14.68586243	      6.43344627	     86.51662706	      0.00000000	      0.00000000	     12.27510183	    -20.79340799	     18.21028338	     39.79194155	     86.51662706	      0.00000000	      0.00000000
      0.85000000	      0.82926224	      1.83179728	      6.90145767	     -0.62649700	      0.89756205	      0.21755300	     27.49650213	     -1.49963160	    -11.82889557	    -11.38690658	      1.93822224	      5.83685345	      9.99636361	    -15.91119838	      4.24590977	      7.44563297	    -14.10336244	     12.28497633	      6.81511715	      7.02015837	     -7.84868264	     -1.54608977	    -10.50229242	     -5.67045257	    -13.17331803	     14.65402290	      6.44615619	     86.51662706	      0.00000000	      0.00000000	     12.17806884	    -20.77102059	     17.87318345	     40.06312703	     86.51662706	      0.00000000	      0.00000000
